<svg xmlns="http://www.w3.org/2000/svg" viewBox="0 0 595.3 841.9" width="30" height="30">
 <path  d="M497.4 558.8c2.6-3.3 4.6-5.7 6.3-7.9 19.8 19.9 39.2 39.3 58.4 58.4-11.9 11.9-24.1 24.1-36.9 37-18.7-19-37.7-38.2-56.7-57.5-.4.2-.9.4-1.3.6 0 6.3.1 12.5 0 18.8-.3 25.8-17.4 46.8-42.5 52.2-4 .9-8.3 1.2-12.4 1.2-95.5.1-191 .1-286.4 0-27.6 0-49.2-17.2-54.4-43.6-.8-3.9-.9-7.9-.9-11.9V216.7c0-25.6 14.8-46.3 38.1-53.1 5.2-1.5 10.8-2.3 16.2-2.3 64.6-.2 129.3-.1 193.9-.2 5.9 0 9.6 3.2 13.2 6.8l69.6 69.6c20.4 20.4 40.7 40.8 61.2 61.1 3.7 3.7 5.6 7.6 5.5 13.1-.3 31.2-.2 62.3 0 93.5 0 2.4.9 5.4 2.4 7.1 30.9 35.1 35 82.3 10.1 121.6-2.4 3.8-2.5 6 .9 9.1 5.4 4.6 10 9.9 15.7 15.8zM301.8 193.1h-5.5c-56.2 0-112.3.2-168.5-.2-14.9-.1-25.6 8.6-25.6 25.5.3 129.3.2 258.6.2 387.9 0 15.9 8.4 24.3 24.4 24.3h284.4c2.6 0 5.4-.2 7.9-.8 8.4-2 15.6-10.3 15.7-18 0-4.3-.7-8.6-.8-12.8-.1-9.1 0-18.2 0-27.4-1.1.2-1.6.1-2.1.3-37.7 13.5-71.8 5.8-102.8-18.1-29.9-23-43.1-66.4-31.8-103.1 6.1-19.9 17.3-36.3 33.7-49.5 9.6-7.7 19.9-13.6 31.3-17 18.9-5.6 38.3-6.3 57.7-2 4.6 1 9 3 13.9 4.8v-57.9c0-1-.2-1.9-.3-3.4h-6.1c-24 0-48 .1-72 0-25.2-.2-46.2-16.6-52.2-40.7-1.1-4.5-1.6-9.2-1.6-13.8.1-25.9.1-51.6.1-78.1zm94 220.9c-36-.8-67.4 28.4-67.2 65.6.2 37.8 31.2 69.2 68.8 69.3 37.1.1 67.2-29.8 67.5-66.6.3-36.2-30.8-68.8-69.1-68.3zM335 215.6c0 20.7-.3 40 .1 59.2.3 11 9.4 19.5 20.8 19.7 18.3.3 36.6 0 54.9 0 .2 0 .5-.4 1.1-.9-25.4-25.7-50.7-51.3-76.9-78zm132.5 358.7v13.3c2.7-2.4 4.8-4.2 7.1-6.2-2.3-2.3-4.2-4.3-7.1-7.1z"/>
</svg>
